<?xml version="1.0" standalone="no"?>
<!DOCTYPE svg PUBLIC "-//W3C//DTD SVG 20010904//EN"
 "http://www.w3.org/TR/2001/REC-SVG-20010904/DTD/svg10.dtd">
<svg version="1.0" xmlns="http://www.w3.org/2000/svg"
 width="280.000000pt" height="280.000000pt" viewBox="0 0 280.000000 280.000000"
 preserveAspectRatio="xMidYMid meet">
<metadata>
Created by potrace 1.11, written by Peter Selinger 2001-2013
</metadata>
<g transform="translate(0.000000,280.000000) scale(0.100000,-0.100000)"
fill="#000000" stroke="none">
<path d="M341 2660 c-40 -90 -76 -228 -91 -353 -18 -142 -8 -467 20 -630 l21
-127 -36 -102 c-20 -57 -63 -206 -95 -333 -56 -222 -82 -298 -113 -340 -14
-18 -11 -22 47 -65 298 -225 692 -430 972 -505 77 -21 107 -34 134 -60 61 -57
115 -79 200 -79 88 -1 144 20 204 77 31 30 56 41 133 62 262 69 616 247 937
469 l114 79 -24 36 c-33 50 -48 97 -105 325 -27 109 -63 240 -80 292 l-31 93
21 113 c34 183 43 283 42 468 0 248 -42 471 -114 608 l-23 44 -85 -63 c-160
-119 -327 -307 -416 -467 -20 -37 -37 -68 -39 -70 -1 -2 -49 8 -106 22 -151
37 -253 48 -433 48 -163 0 -291 -15 -415 -50 l-65 -17 -42 74 c-107 187 -300
392 -474 505 l-26 16 -32 -70z m864 -2240 c3 -5 1 -10 -4 -10 -6 0 -11 5 -11
10 0 6 2 10 4 10 3 0 8 -4 11 -10z m405 0 c0 -5 -5 -10 -11 -10 -5 0 -7 5 -4
10 3 6 8 10 11 10 2 0 4 -4 4 -10z"/>
</g>
</svg>
